<svg width="52" height="52" viewBox="0 0 52 52" fill="none" xmlns="http://www.w3.org/2000/svg">
<path d="M48.925 1.15006C47.133 0.841393 45.3184 0.682511 43.5 0.67506C37.2959 0.669973 31.2212 2.44899 26 5.80006C20.7654 2.49299 14.6916 0.757637 8.5 0.80006C6.68161 0.80751 4.86701 0.966393 3.075 1.27506C2.48801 1.37626 1.95645 1.68371 1.57603 2.14204C1.19561 2.60038 0.991339 3.17948 0.999998 3.77506V33.7751C0.994644 34.1424 1.07031 34.5064 1.22162 34.8412C1.37293 35.1759 1.59616 35.4732 1.87543 35.7119C2.1547 35.9506 2.48314 36.1248 2.83739 36.2222C3.19163 36.3195 3.56298 36.3376 3.925 36.2751C7.50755 35.6548 11.178 35.7577 14.7202 36.5778C18.2623 37.3978 21.6046 38.9184 24.55 41.0501L24.85 41.2251H25.125C25.4023 41.3406 25.6996 41.4001 26 41.4001C26.3004 41.4001 26.5977 41.3406 26.875 41.2251H27.15L27.45 41.0501C30.3749 38.8708 33.7075 37.3009 37.2504 36.4334C40.7932 35.566 44.4741 35.4186 48.075 36.0001C48.437 36.0625 48.8084 36.0445 49.1626 35.9472C49.5169 35.8498 49.8453 35.6756 50.1246 35.4369C50.4038 35.1982 50.6271 34.9009 50.7784 34.5662C50.9297 34.2314 51.0054 33.8674 51 33.5001V3.50006C50.974 2.93044 50.754 2.38684 50.3766 1.9594C49.9992 1.53197 49.487 1.2464 48.925 1.15006ZM23.5 34.3751C18.8747 31.9418 13.7263 30.6718 8.5 30.6751H6V5.67506C6.83264 5.62707 7.66736 5.62707 8.5 5.67506C13.8335 5.66917 19.0505 7.23429 23.5 10.1751V34.3751ZM46 30.7751H43.5C38.2737 30.7718 33.1253 32.0418 28.5 34.4751V10.1751C32.9495 7.23429 38.1665 5.66917 43.5 5.67506C44.3326 5.62707 45.1674 5.62707 46 5.67506V30.7751ZM48.925 41.1501C47.133 40.8414 45.3184 40.6825 43.5 40.6751C37.2959 40.67 31.2212 42.449 26 45.8001C20.7788 42.449 14.7041 40.67 8.5 40.6751C6.68161 40.6825 4.86701 40.8414 3.075 41.1501C2.74957 41.2017 2.43755 41.3172 2.1569 41.4898C1.87625 41.6625 1.6325 41.8889 1.43966 42.1561C1.24683 42.4233 1.10871 42.7259 1.03326 43.0467C0.957803 43.3674 0.9465 43.6999 0.999998 44.0251C1.12704 44.6743 1.50622 45.2467 2.05447 45.6169C2.60272 45.987 3.27535 46.1248 3.925 46.0001C7.50755 45.3798 11.178 45.4827 14.7202 46.3028C18.2623 47.1228 21.6046 48.6434 24.55 50.7751C24.9734 51.0765 25.4802 51.2385 26 51.2385C26.5198 51.2385 27.0266 51.0765 27.45 50.7751C30.3954 48.6434 33.7377 47.1228 37.2798 46.3028C40.822 45.4827 44.4924 45.3798 48.075 46.0001C48.7246 46.1248 49.3973 45.987 49.9455 45.6169C50.4938 45.2467 50.8729 44.6743 51 44.0251C51.0535 43.6999 51.0422 43.3674 50.9667 43.0467C50.8913 42.7259 50.7532 42.4233 50.5603 42.1561C50.3675 41.8889 50.1237 41.6625 49.8431 41.4898C49.5624 41.3172 49.2504 41.2017 48.925 41.1501Z" fill="#FFBC47"/>
</svg>
