<svg width="50" height="50" viewBox="0 0 50 50" fill="none" xmlns="http://www.w3.org/2000/svg">
<path d="M12.5 35C12.0055 35 11.5222 35.1466 11.1111 35.4213C10.7 35.696 10.3795 36.0865 10.1903 36.5433C10.0011 37.0001 9.95157 37.5028 10.048 37.9877C10.1445 38.4727 10.3826 38.9181 10.7322 39.2678C11.0819 39.6174 11.5273 39.8555 12.0123 39.952C12.4972 40.0484 12.9999 39.9989 13.4567 39.8097C13.9135 39.6205 14.304 39.3001 14.5787 38.8889C14.8534 38.4778 15 37.9945 15 37.5C15 36.837 14.7366 36.2011 14.2678 35.7322C13.7989 35.2634 13.163 35 12.5 35ZM42.65 25L45.725 21.925C47.1295 20.5187 47.9184 18.6125 47.9184 16.625C47.9184 14.6375 47.1295 12.7313 45.725 11.325L38.65 4.275C37.2437 2.8705 35.3375 2.0816 33.35 2.0816C31.3625 2.0816 29.4563 2.8705 28.05 4.275L25 7.35C24.9607 5.38699 24.1533 3.51765 22.751 2.1434C21.3487 0.76916 19.4634 -0.000392569 17.5 1.50236e-07H7.5C5.51088 1.50236e-07 3.60322 0.790177 2.1967 2.1967C0.790177 3.60322 0 5.51088 0 7.5V42.5C0 44.4891 0.790177 46.3968 2.1967 47.8033C3.60322 49.2098 5.51088 50 7.5 50H42.5C44.4891 50 46.3968 49.2098 47.8033 47.8033C49.2098 46.3968 50 44.4891 50 42.5V32.5C50.0004 30.5366 49.2308 28.6513 47.8566 27.249C46.4824 25.8467 44.613 25.0393 42.65 25ZM20 42.5C20 43.163 19.7366 43.7989 19.2678 44.2678C18.7989 44.7366 18.163 45 17.5 45H7.5C6.83696 45 6.20107 44.7366 5.73223 44.2678C5.26339 43.7989 5 43.163 5 42.5V7.5C5 6.83696 5.26339 6.20108 5.73223 5.73223C6.20107 5.26339 6.83696 5 7.5 5H17.5C18.163 5 18.7989 5.26339 19.2678 5.73223C19.7366 6.20108 20 6.83696 20 7.5V42.5ZM25 14.4L31.6 7.8C32.0684 7.33437 32.702 7.07302 33.3625 7.07302C34.023 7.07302 34.6566 7.33437 35.125 7.8L42.2 15C42.6656 15.4684 42.927 16.102 42.927 16.7625C42.927 17.423 42.6656 18.0566 42.2 18.525L35 25.725L25 35.6V14.4ZM45 42.5C45 43.163 44.7366 43.7989 44.2678 44.2678C43.7989 44.7366 43.163 45 42.5 45H24.55C24.8065 44.2591 24.9497 43.4837 24.975 42.7L37.675 30H42.5C43.163 30 43.7989 30.2634 44.2678 30.7322C44.7366 31.2011 45 31.837 45 32.5V42.5Z" fill="#FFBC47"/>
</svg>
