<svg width="50" height="46" viewBox="0 0 50 46" fill="none" xmlns="http://www.w3.org/2000/svg">
<path d="M48.3 5.62502L33.3 0.625015H33.125C33.0086 0.613319 32.8914 0.613319 32.775 0.625015H31.7L17.5 5.50002L3.30001 0.625015C2.92405 0.501044 2.52402 0.468128 2.13285 0.528977C1.74168 0.589825 1.37055 0.742699 1.05001 0.975015C0.726904 1.20506 0.463171 1.50867 0.280595 1.86078C0.0980199 2.21289 0.00184238 2.60339 8.33384e-06 3.00002V38C-0.00134457 38.5241 0.162056 39.0354 0.467113 39.4616C0.772171 39.8878 1.20346 40.2073 1.70001 40.375L16.7 45.375C17.2036 45.5392 17.7464 45.5392 18.25 45.375L32.5 40.625L46.7 45.5C46.9655 45.536 47.2346 45.536 47.5 45.5C48.0227 45.5074 48.533 45.3402 48.95 45.025C49.2731 44.795 49.5368 44.4914 49.7194 44.1392C49.902 43.7871 49.9982 43.3966 50 43V8.00002C50.0014 7.47591 49.838 6.96463 49.5329 6.53844C49.2278 6.11226 48.7966 5.79273 48.3 5.62502ZM15 39.525L5.00001 36.2V6.47501L15 9.80001V39.525ZM30 36.2L20 39.525V9.80001L30 6.47501V36.2ZM45 39.525L35 36.2V6.47501L45 9.80001V39.525Z" fill="#FFBC47"/>
</svg>
