<svg width="44" height="50" viewBox="0 0 44 50" fill="none" xmlns="http://www.w3.org/2000/svg">
<path d="M42.275 38.725L29.5 16.825V5H32C32.663 5 33.2989 4.73661 33.7678 4.26777C34.2366 3.79893 34.5 3.16304 34.5 2.5C34.5 1.83696 34.2366 1.20107 33.7678 0.732233C33.2989 0.263392 32.663 0 32 0H12C11.337 0 10.7011 0.263392 10.2322 0.732233C9.76339 1.20107 9.5 1.83696 9.5 2.5C9.5 3.16304 9.76339 3.79893 10.2322 4.26777C10.7011 4.73661 11.337 5 12 5H14.5V16.825L1.725 38.725C1.06136 39.8643 0.709785 41.1584 0.705724 42.4769C0.701663 43.7954 1.04526 45.0916 1.70187 46.235C2.35848 47.3784 3.3049 48.3284 4.44574 48.9894C5.58658 49.6504 6.88151 49.999 8.2 50H35.7C37.0185 49.999 38.3134 49.6504 39.4543 48.9894C40.5951 48.3284 41.5415 47.3784 42.1981 46.235C42.8547 45.0916 43.1983 43.7954 43.1943 42.4769C43.1902 41.1584 42.8386 39.8643 42.175 38.725H42.275ZM19.15 18.725C19.3705 18.3537 19.4911 17.9317 19.5 17.5V5H24.5V17.5C24.5046 17.9402 24.6253 18.3714 24.85 18.75L27 22.5H17L19.15 18.725ZM37.95 43.725C37.7319 44.1028 37.4186 44.417 37.0415 44.6363C36.6643 44.8556 36.2363 44.9724 35.8 44.975H8.3C7.86371 44.9724 7.43571 44.8556 7.05854 44.6363C6.68136 44.417 6.36813 44.1028 6.15 43.725C5.93058 43.345 5.81506 42.9138 5.81506 42.475C5.81506 42.0362 5.93058 41.605 6.15 41.225L14.075 27.5H29.95L37.95 41.25C38.1694 41.63 38.2849 42.0612 38.2849 42.5C38.2849 42.9388 38.1694 43.37 37.95 43.75V43.725ZM17 32.5C16.5055 32.5 16.0222 32.6466 15.6111 32.9213C15.1999 33.196 14.8795 33.5865 14.6903 34.0433C14.5011 34.5001 14.4516 35.0028 14.548 35.4877C14.6445 35.9727 14.8826 36.4181 15.2322 36.7678C15.5819 37.1174 16.0273 37.3555 16.5123 37.452C16.9972 37.5484 17.4999 37.4989 17.9567 37.3097C18.4135 37.1205 18.804 36.8 19.0787 36.3889C19.3534 35.9778 19.5 35.4945 19.5 35C19.5 34.337 19.2366 33.7011 18.7678 33.2322C18.2989 32.7634 17.663 32.5 17 32.5ZM27 35C26.5055 35 26.0222 35.1466 25.6111 35.4213C25.1999 35.696 24.8795 36.0865 24.6903 36.5433C24.5011 37.0001 24.4516 37.5028 24.548 37.9877C24.6445 38.4727 24.8826 38.9181 25.2322 39.2678C25.5819 39.6174 26.0273 39.8555 26.5123 39.952C26.9972 40.0484 27.4999 39.9989 27.9567 39.8097C28.4135 39.6205 28.804 39.3 29.0787 38.8889C29.3534 38.4778 29.5 37.9945 29.5 37.5C29.5 36.837 29.2366 36.2011 28.7678 35.7322C28.2989 35.2634 27.663 35 27 35Z" fill="#FFBC47"/>
</svg>
