<svg width="50" height="50" viewBox="0 0 50 50" fill="none" xmlns="http://www.w3.org/2000/svg">
<path d="M13.75 9.99998C13.0083 9.99998 12.2833 10.2199 11.6666 10.632C11.0499 11.044 10.5693 11.6297 10.2854 12.3149C10.0016 13.0001 9.92734 13.7541 10.072 14.4816C10.2167 15.209 10.5739 15.8772 11.0983 16.4016C11.6228 16.9261 12.291 17.2832 13.0184 17.4279C13.7458 17.5726 14.4998 17.4984 15.185 17.2145C15.8703 16.9307 16.4559 16.4501 16.868 15.8334C17.28 15.2167 17.5 14.4917 17.5 13.75C17.5 12.7554 17.1049 11.8016 16.4016 11.0983C15.6984 10.3951 14.7445 9.99998 13.75 9.99998ZM47.8 21.775L26.775 0.724981C26.5414 0.493277 26.2643 0.309964 25.9597 0.185553C25.6552 0.0611412 25.329 -0.00192148 25 -1.92494e-05H2.49998C1.83694 -1.92494e-05 1.20105 0.263373 0.732214 0.732214C0.263373 1.20105 -1.92494e-05 1.83694 -1.92494e-05 2.49998V25C-0.00192148 25.329 0.0611412 25.6552 0.185553 25.9598C0.309964 26.2643 0.493277 26.5414 0.724981 26.775L21.775 47.8C23.1812 49.2045 25.0875 49.9934 27.075 49.9934C29.0625 49.9934 30.9687 49.2045 32.375 47.8L47.8 32.5C49.2045 31.0937 49.9934 29.1875 49.9934 27.2C49.9934 25.2125 49.2045 23.3062 47.8 21.9V21.775ZM44.275 28.825L28.825 44.25C28.3566 44.7156 27.7229 44.977 27.0625 44.977C26.402 44.977 25.7684 44.7156 25.3 44.25L4.99998 23.975V4.99998H23.975L44.275 25.3C44.5067 25.5336 44.69 25.8106 44.8144 26.1152C44.9388 26.4198 45.0019 26.746 45 27.075C44.9972 27.7308 44.7368 28.3593 44.275 28.825Z" fill="#FFBC47"/>
</svg>
