<svg width="50" height="50" viewBox="0 0 50 50" fill="none" xmlns="http://www.w3.org/2000/svg">
<path d="M25 10C24.3369 10 23.701 10.2634 23.2322 10.7322C22.7633 11.2011 22.5 11.837 22.5 12.5V23.46L16.4249 26.5175C16.1213 26.6586 15.8492 26.8592 15.6246 27.1075C15.4 27.3558 15.2276 27.6467 15.1175 27.9629C15.0075 28.279 14.9621 28.6141 14.984 28.9482C15.0059 29.2823 15.0947 29.6085 15.245 29.9076C15.3954 30.2068 15.6044 30.4726 15.8595 30.6894C16.1145 30.9063 16.4106 31.0697 16.73 31.1699C17.0494 31.2702 17.3858 31.3052 17.719 31.273C18.0522 31.2408 18.3756 31.142 18.67 30.9825L26.1225 27.2325C26.5365 27.0247 26.8846 26.7059 27.1279 26.3117C27.3712 25.9174 27.5 25.4633 27.5 25V12.5C27.5 11.837 27.2366 11.2011 26.7677 10.7322C26.2989 10.2634 25.663 10 25 10ZM25 0C20.0554 0 15.2219 1.46622 11.1107 4.21326C6.99947 6.96029 3.79515 10.8648 1.90296 15.4329C0.0107711 20.0011 -0.484312 25.0277 0.480318 29.8773C1.44495 34.7268 3.82597 39.1814 7.32228 42.6777C10.8186 46.174 15.2732 48.555 20.1227 49.5196C24.9722 50.4843 29.9989 49.9892 34.567 48.097C39.1352 46.2048 43.0396 43.0005 45.7867 38.8893C48.5337 34.778 49.9999 29.9445 49.9999 25C49.9927 18.3718 47.3564 12.0172 42.6696 7.33037C37.9827 2.64354 31.6281 0.00727899 25 0ZM25 45C21.0443 45 17.1775 43.827 13.8885 41.6294C10.5996 39.4318 8.03611 36.3082 6.52236 32.6537C5.00861 28.9991 4.61254 24.9778 5.38425 21.0982C6.15595 17.2186 8.06076 13.6549 10.8578 10.8579C13.6549 8.06081 17.2185 6.156 21.0981 5.38429C24.9778 4.61259 28.9991 5.00866 32.6536 6.52241C36.3081 8.03616 39.4317 10.5996 41.6293 13.8886C43.827 17.1776 44.9999 21.0444 44.9999 25C44.9933 30.3023 42.8841 35.3855 39.1348 39.1348C35.3855 42.8841 30.3022 44.9934 25 45Z" fill="#FFBC47"/>
</svg>
