<svg width="40" height="50" viewBox="0 0 40 50" fill="none" xmlns="http://www.w3.org/2000/svg">
<path d="M12.5 20H15C15.663 20 16.2989 19.7366 16.7678 19.2678C17.2366 18.7989 17.5 18.163 17.5 17.5C17.5 16.837 17.2366 16.2011 16.7678 15.7322C16.2989 15.2634 15.663 15 15 15H12.5C11.837 15 11.2011 15.2634 10.7322 15.7322C10.2634 16.2011 10 16.837 10 17.5C10 18.163 10.2634 18.7989 10.7322 19.2678C11.2011 19.7366 11.837 20 12.5 20ZM12.5 25C11.837 25 11.2011 25.2634 10.7322 25.7322C10.2634 26.2011 10 26.837 10 27.5C10 28.163 10.2634 28.7989 10.7322 29.2678C11.2011 29.7366 11.837 30 12.5 30H27.5C28.163 30 28.7989 29.7366 29.2678 29.2678C29.7366 28.7989 30 28.163 30 27.5C30 26.837 29.7366 26.2011 29.2678 25.7322C28.7989 25.2634 28.163 25 27.5 25H12.5ZM40 17.35C39.974 17.1203 39.9237 16.8941 39.85 16.675V16.45C39.7298 16.1929 39.5695 15.9567 39.375 15.75L24.375 0.75C24.1683 0.55554 23.9321 0.395202 23.675 0.275C23.6004 0.2644 23.5246 0.2644 23.45 0.275C23.196 0.129353 22.9156 0.0358605 22.625 0H7.5C5.51088 0 3.60322 0.790177 2.1967 2.1967C0.790177 3.60322 0 5.51088 0 7.5V42.5C0 44.4891 0.790177 46.3968 2.1967 47.8033C3.60322 49.2098 5.51088 50 7.5 50H32.5C34.4891 50 36.3968 49.2098 37.8033 47.8033C39.2098 46.3968 40 44.4891 40 42.5V17.5V17.35ZM25 8.525L31.475 15H27.5C26.837 15 26.2011 14.7366 25.7322 14.2678C25.2634 13.7989 25 13.163 25 12.5V8.525ZM35 42.5C35 43.163 34.7366 43.7989 34.2678 44.2678C33.7989 44.7366 33.163 45 32.5 45H7.5C6.83696 45 6.20107 44.7366 5.73223 44.2678C5.26339 43.7989 5 43.163 5 42.5V7.5C5 6.83696 5.26339 6.20107 5.73223 5.73223C6.20107 5.26339 6.83696 5 7.5 5H20V12.5C20 14.4891 20.7902 16.3968 22.1967 17.8033C23.6032 19.2098 25.5109 20 27.5 20H35V42.5ZM27.5 35H12.5C11.837 35 11.2011 35.2634 10.7322 35.7322C10.2634 36.2011 10 36.837 10 37.5C10 38.163 10.2634 38.7989 10.7322 39.2678C11.2011 39.7366 11.837 40 12.5 40H27.5C28.163 40 28.7989 39.7366 29.2678 39.2678C29.7366 38.7989 30 38.163 30 37.5C30 36.837 29.7366 36.2011 29.2678 35.7322C28.7989 35.2634 28.163 35 27.5 35Z" fill="#FFBC47"/>
</svg>
