<svg width="51" height="51" viewBox="0 0 51 51" fill="none" xmlns="http://www.w3.org/2000/svg">
<path d="M16 22.5C15.5055 22.5 15.0222 22.6466 14.6111 22.9213C14.2 23.196 13.8795 23.5865 13.6903 24.0433C13.5011 24.5001 13.4516 25.0028 13.548 25.4877C13.6445 25.9727 13.8826 26.4181 14.2322 26.7678C14.5819 27.1174 15.0273 27.3555 15.5123 27.452C15.9972 27.5484 16.4999 27.4989 16.9567 27.3097C17.4135 27.1205 17.804 26.8 18.0787 26.3889C18.3534 25.9778 18.5 25.4945 18.5 25C18.5 24.337 18.2366 23.7011 17.7678 23.2322C17.2989 22.7634 16.663 22.5 16 22.5ZM26 22.5C25.5055 22.5 25.0222 22.6466 24.6111 22.9213C24.2 23.196 23.8795 23.5865 23.6903 24.0433C23.5011 24.5001 23.4516 25.0028 23.548 25.4877C23.6445 25.9727 23.8826 26.4181 24.2322 26.7678C24.5819 27.1174 25.0273 27.3555 25.5123 27.452C25.9972 27.5484 26.4999 27.4989 26.9567 27.3097C27.4135 27.1205 27.804 26.8 28.0787 26.3889C28.3534 25.9778 28.5 25.4945 28.5 25C28.5 24.337 28.2366 23.7011 27.7678 23.2322C27.2989 22.7634 26.663 22.5 26 22.5ZM36 22.5C35.5056 22.5 35.0222 22.6466 34.6111 22.9213C34.2 23.196 33.8795 23.5865 33.6903 24.0433C33.5011 24.5001 33.4516 25.0028 33.548 25.4877C33.6445 25.9727 33.8826 26.4181 34.2322 26.7678C34.5819 27.1174 35.0273 27.3555 35.5123 27.452C35.9972 27.5484 36.4999 27.4989 36.9567 27.3097C37.4135 27.1205 37.804 26.8 38.0787 26.3889C38.3534 25.9778 38.5 25.4945 38.5 25C38.5 24.337 38.2366 23.7011 37.7678 23.2322C37.2989 22.7634 36.663 22.5 36 22.5ZM26 0C22.717 0 19.4661 0.646644 16.4329 1.90301C13.3998 3.15938 10.6438 5.00087 8.32233 7.32233C3.63392 12.0107 1 18.3696 1 25C0.978145 30.7728 2.97698 36.3713 6.65 40.825L1.65 45.825C1.30311 46.1766 1.06812 46.623 0.974681 47.108C0.881245 47.5929 0.933552 48.0947 1.125 48.55C1.33265 48.9998 1.66926 49.3778 2.09212 49.636C2.51497 49.8941 3.005 50.0208 3.5 50H26C32.6304 50 38.9893 47.3661 43.6777 42.6777C48.3661 37.9893 51 31.6304 51 25C51 18.3696 48.3661 12.0107 43.6777 7.32233C38.9893 2.63392 32.6304 0 26 0ZM26 45H9.525L11.85 42.675C12.0862 42.4435 12.2741 42.1674 12.4029 41.8627C12.5316 41.558 12.5986 41.2308 12.6 40.9C12.5906 40.2406 12.321 39.6116 11.85 39.15C8.57647 35.8801 6.53794 31.5763 6.08173 26.972C5.62552 22.3676 6.77986 17.7475 9.34807 13.8988C11.9163 10.0501 15.7395 7.2109 20.1663 5.86493C24.5931 4.51897 29.3496 4.74951 33.6255 6.51728C37.9014 8.28506 41.4321 11.4807 43.6161 15.5597C45.8001 19.6388 46.5022 24.3489 45.6028 28.8875C44.7035 33.4262 42.2583 37.5126 38.6838 40.4506C35.1094 43.3886 30.6269 44.9964 26 45Z" fill="#FFBC47"/>
</svg>
