<svg width="51" height="50" viewBox="0 0 51 50" fill="none" xmlns="http://www.w3.org/2000/svg">
<path d="M31.725 38.225L28.5 41.475V27.5C28.5 26.8369 28.2366 26.2011 27.7677 25.7322C27.2989 25.2634 26.663 25 26 25C25.3369 25 24.701 25.2634 24.2322 25.7322C23.7634 26.2011 23.5 26.8369 23.5 27.5V41.475L20.275 38.225C20.0419 37.9919 19.7652 37.807 19.4606 37.6808C19.156 37.5547 18.8296 37.4898 18.5 37.4898C18.1703 37.4898 17.8439 37.5547 17.5393 37.6808C17.2348 37.807 16.9581 37.9919 16.725 38.225C16.4919 38.4581 16.307 38.7348 16.1808 39.0394C16.0547 39.3439 15.9897 39.6703 15.9897 40C15.9897 40.3296 16.0547 40.656 16.1808 40.9606C16.307 41.2652 16.4919 41.5419 16.725 41.775L24.225 49.275C24.4627 49.5026 24.7431 49.681 25.05 49.8C25.3492 49.9322 25.6728 50.0006 26 50.0006C26.3271 50.0006 26.6507 49.9322 26.95 49.8C27.2568 49.681 27.5372 49.5026 27.775 49.275L35.275 41.775C35.7457 41.3042 36.0102 40.6657 36.0102 40C36.0102 39.3342 35.7457 38.6957 35.275 38.225C34.8042 37.7542 34.1657 37.4898 33.5 37.4898C32.8342 37.4898 32.1957 37.7542 31.725 38.225ZM42.05 10.55C40.5224 7.03999 37.8862 4.12767 34.5451 2.2593C31.2041 0.390923 27.3426 -0.330438 23.5524 0.205755C19.7622 0.741948 16.2523 2.50611 13.5606 5.22792C10.8689 7.94972 9.14394 11.479 8.64997 15.275C6.26643 15.8458 4.17552 17.2721 2.77431 19.283C1.3731 21.2938 0.75918 23.7493 1.04913 26.183C1.33908 28.6167 2.51271 30.8592 4.34714 32.4846C6.18157 34.11 8.54904 35.0051 11 35C11.663 35 12.2989 34.7366 12.7677 34.2677C13.2366 33.7989 13.5 33.163 13.5 32.5C13.5 31.8369 13.2366 31.2011 12.7677 30.7322C12.2989 30.2634 11.663 30 11 30C9.67389 30 8.40212 29.4732 7.46444 28.5355C6.52675 27.5978 5.99997 26.3261 5.99997 25C5.99997 23.6739 6.52675 22.4021 7.46444 21.4644C8.40212 20.5268 9.67389 20 11 20C11.663 20 12.2989 19.7366 12.7677 19.2677C13.2366 18.7989 13.5 18.163 13.5 17.5C13.5064 14.5432 14.5607 11.6844 16.4756 9.43144C18.3906 7.17852 21.0422 5.67736 23.9593 5.19467C26.8765 4.71197 29.8703 5.279 32.4089 6.795C34.9475 8.31101 36.8665 10.6778 37.825 13.475C37.9679 13.9046 38.2248 14.2873 38.5682 14.5823C38.9116 14.8773 39.3287 15.0735 39.775 15.15C41.4401 15.4647 42.9496 16.334 44.0575 17.6163C45.1654 18.8986 45.8064 20.5184 45.876 22.2116C45.9455 23.9048 45.4397 25.5717 44.4407 26.9406C43.4418 28.3095 42.0087 29.2997 40.375 29.75C40.0565 29.8321 39.7573 29.9761 39.4945 30.1738C39.2317 30.3714 39.0104 30.619 38.8433 30.9022C38.6761 31.1854 38.5664 31.4988 38.5204 31.8244C38.4743 32.15 38.4929 32.4815 38.575 32.8C38.657 33.1184 38.801 33.4176 38.9987 33.6804C39.1964 33.9432 39.444 34.1645 39.7272 34.3317C40.0104 34.4988 40.3238 34.6085 40.6494 34.6546C40.975 34.7006 41.3065 34.6821 41.625 34.6C44.2559 33.9048 46.5882 32.37 48.2675 30.2286C49.9468 28.0873 50.8815 25.4565 50.9296 22.7357C50.9776 20.0148 50.1365 17.3526 48.5339 15.1533C46.9313 12.954 44.6547 11.3377 42.05 10.55Z" fill="#FFBC47"/>
</svg>
