<svg width="51" height="50" viewBox="0 0 51 50" fill="none" xmlns="http://www.w3.org/2000/svg">
<path d="M48.725 6.82502L37.5 0.425025C37.12 0.205604 36.6888 0.0900879 36.25 0.0900879C35.8112 0.0900879 35.38 0.205604 35 0.425025L25 6.12502L15 0.425025C14.62 0.205604 14.1888 0.0900879 13.75 0.0900879C13.3112 0.0900879 12.88 0.205604 12.5 0.425025L1.275 6.82502C0.888834 7.04209 0.56728 7.35787 0.343251 7.74003C0.119222 8.1222 0.000763392 8.55703 0 9.00002V21.8C0.000763392 22.243 0.119222 22.6778 0.343251 23.06C0.56728 23.4422 0.888834 23.758 1.275 23.975L11.275 29.65V41C11.2758 41.443 11.3942 41.8778 11.6183 42.26C11.8423 42.6422 12.1638 42.958 12.55 43.175L23.8 49.575C24.18 49.7944 24.6112 49.91 25.05 49.91C25.4888 49.91 25.92 49.7944 26.3 49.575L37.5 43.175C37.8862 42.958 38.2077 42.6422 38.4317 42.26C38.6558 41.8778 38.7742 41.443 38.775 41V29.65L48.775 23.975C49.1612 23.758 49.4827 23.4422 49.7067 23.06C49.9308 22.6778 50.0492 22.243 50.05 21.8V9.00002C50.0443 8.55202 49.9183 8.11378 49.6852 7.73115C49.4521 7.34852 49.1205 7.03557 48.725 6.82502ZM5 20.35V10.35L13.75 5.35002L22.5 10.35V20.35L13.75 25.35L5 20.35ZM33.75 39.55L25 44.55L16.25 39.55V29.55L25 24.55L33.75 29.55V39.55ZM45 20.35L36.25 25.35L27.5 20.35V10.35L36.25 5.35002L45 10.35V20.35Z" fill="#FFBC47"/>
</svg>
