<svg width="50" height="51" viewBox="0 0 50 51" fill="none" xmlns="http://www.w3.org/2000/svg">
<path d="M47.5 41H42.5V33.5C42.5 32.837 42.2366 32.2011 41.7678 31.7323C41.2989 31.2634 40.663 31 40 31H27.5V24.225L30.325 25.7C30.737 25.9155 31.2009 26.0119 31.6646 25.9783C32.1283 25.9446 32.5735 25.7824 32.9501 25.5097C33.3267 25.237 33.6197 24.8647 33.7964 24.4346C33.973 24.0045 34.0262 23.5337 33.95 23.075L32.95 17.15L37.25 12.925C37.5757 12.607 37.8084 12.206 37.9229 11.7655C38.0374 11.3249 38.0295 10.8614 37.9 10.425C37.7551 9.98071 37.4886 9.58591 37.1306 9.28542C36.7727 8.98493 36.3377 8.79079 35.875 8.72502L30 7.80002L27.25 2.40002C27.0453 1.97734 26.7257 1.62088 26.3277 1.37146C25.9298 1.12203 25.4696 0.989746 25 0.989746C24.5304 0.989746 24.0702 1.12203 23.6723 1.37146C23.2743 1.62088 22.9547 1.97734 22.75 2.40002L20 7.80002L14.025 8.67502C13.5623 8.74079 13.1273 8.93493 12.7694 9.23542C12.4114 9.53591 12.1449 9.93071 12 10.375C11.8705 10.8114 11.8625 11.2749 11.9771 11.7155C12.0916 12.156 12.3243 12.557 12.65 12.875L17.05 17.15L16.05 23.075C15.9738 23.5337 16.027 24.0045 16.2036 24.4346C16.3803 24.8647 16.6733 25.237 17.0499 25.5097C17.4265 25.7824 17.8717 25.9446 18.3354 25.9783C18.7991 26.0119 19.263 25.9155 19.675 25.7L22.5 24.225V31H10C9.33696 31 8.70107 31.2634 8.23223 31.7323C7.76339 32.2011 7.5 32.837 7.5 33.5V41H2.5C1.83696 41 1.20107 41.2634 0.732233 41.7323C0.263392 42.2011 0 42.837 0 43.5V48.5C0 49.1631 0.263392 49.799 0.732233 50.2678C1.20107 50.7366 1.83696 51 2.5 51C3.16304 51 3.79893 50.7366 4.26777 50.2678C4.73661 49.799 5 49.1631 5 48.5V46H15V48.5C15 49.1631 15.2634 49.799 15.7322 50.2678C16.2011 50.7366 16.837 51 17.5 51C18.163 51 18.7989 50.7366 19.2678 50.2678C19.7366 49.799 20 49.1631 20 48.5V43.5C20 42.837 19.7366 42.2011 19.2678 41.7323C18.7989 41.2634 18.163 41 17.5 41H12.5V36H37.5V41H32.5C31.837 41 31.2011 41.2634 30.7322 41.7323C30.2634 42.2011 30 42.837 30 43.5V48.5C30 49.1631 30.2634 49.799 30.7322 50.2678C31.2011 50.7366 31.837 51 32.5 51C33.163 51 33.7989 50.7366 34.2678 50.2678C34.7366 49.799 35 49.1631 35 48.5V46H45V48.5C45 49.1631 45.2634 49.799 45.7322 50.2678C46.2011 50.7366 46.837 51 47.5 51C48.163 51 48.7989 50.7366 49.2678 50.2678C49.7366 49.799 50 49.1631 50 48.5V43.5C50 42.837 49.7366 42.2011 49.2678 41.7323C48.7989 41.2634 48.163 41 47.5 41ZM25 17.575C24.5896 17.5771 24.1861 17.6801 23.825 17.875L21.825 18.925L22.2 16.675C22.2656 16.277 22.2339 15.8691 22.1077 15.486C21.9814 15.1029 21.7644 14.756 21.475 14.475L19.85 12.875L22.1 12.55C22.5025 12.4962 22.8859 12.3452 23.217 12.11C23.548 11.8748 23.8168 11.5624 24 11.2L25 9.15002L26 11.2C26.1832 11.5624 26.452 11.8748 26.783 12.11C27.1141 12.3452 27.4975 12.4962 27.9 12.55L30.15 12.875L28.525 14.475C28.2356 14.756 28.0186 15.1029 27.8923 15.486C27.7661 15.8691 27.7344 16.277 27.8 16.675L28.175 18.925L26.175 17.875C25.8139 17.6801 25.4104 17.5771 25 17.575Z" fill="#FFBC47"/>
</svg>
