<svg width="50" height="50" viewBox="0 0 50 50" fill="none" xmlns="http://www.w3.org/2000/svg">
<path d="M47.5 40H32.05C31.6767 38.9515 31.0747 37.9992 30.2878 37.2122C29.5008 36.4253 28.5485 35.8233 27.5 35.45V30H36.675C38.2179 29.9934 39.6957 29.3776 40.7866 28.2866C41.8776 27.1956 42.4934 25.7179 42.5 24.175V10.825C42.4934 9.28213 41.8776 7.80434 40.7866 6.71337C39.6957 5.62239 38.2179 5.00657 36.675 4.99999H26.675L26.35 3.97499C25.9645 2.83484 25.2367 1.84134 24.2658 1.12998C23.295 0.418615 22.1283 0.0240179 20.925 -6.79633e-06H13.425C12.6526 -0.00991724 11.8858 0.133252 11.169 0.421238C10.4522 0.709223 9.79959 1.13632 9.24873 1.67788C8.69787 2.21944 8.25972 2.86474 7.95958 3.57653C7.65944 4.28833 7.50324 5.05251 7.5 5.82499V24.175C7.50658 25.7179 8.1224 27.1956 9.21337 28.2866C10.3043 29.3776 11.7821 29.9934 13.325 30H22.5V35.45C21.4515 35.8233 20.4992 36.4253 19.7122 37.2122C18.9253 37.9992 18.3233 38.9515 17.95 40H2.5C1.83696 40 1.20107 40.2634 0.732233 40.7322C0.263392 41.2011 0 41.837 0 42.5C0 43.163 0.263392 43.7989 0.732233 44.2678C1.20107 44.7366 1.83696 45 2.5 45H17.95C18.4755 46.4479 19.4341 47.6988 20.6954 48.5829C21.9568 49.4669 23.4597 49.9412 25 49.9412C26.5403 49.9412 28.0432 49.4669 29.3046 48.5829C30.5659 47.6988 31.5245 46.4479 32.05 45H47.5C48.163 45 48.7989 44.7366 49.2678 44.2678C49.7366 43.7989 50 43.163 50 42.5C50 41.837 49.7366 41.2011 49.2678 40.7322C48.7989 40.2634 48.163 40 47.5 40ZM13.325 25C13.1062 25 12.8964 24.9131 12.7416 24.7584C12.5869 24.6036 12.5 24.3938 12.5 24.175V5.82499C12.5 5.60619 12.5869 5.39635 12.7416 5.24163C12.8964 5.08691 13.1062 4.99999 13.325 4.99999H20.825C21.0025 4.99703 21.1761 5.05138 21.3203 5.15497C21.4644 5.25855 21.5712 5.40585 21.625 5.57499L22.525 8.29999C22.6978 8.81317 23.0325 9.25637 23.4789 9.56294C23.9252 9.86952 24.459 10.0229 25 9.99999H36.675C36.8938 9.99999 37.1036 10.0869 37.2584 10.2416C37.4131 10.3963 37.5 10.6062 37.5 10.825V24.175C37.5 24.3938 37.4131 24.6036 37.2584 24.7584C37.1036 24.9131 36.8938 25 36.675 25H13.325ZM25 45C24.5055 45 24.0222 44.8534 23.6111 44.5787C23.2 44.304 22.8795 43.9135 22.6903 43.4567C22.5011 42.9999 22.4516 42.4972 22.548 42.0123C22.6445 41.5273 22.8826 41.0819 23.2322 40.7322C23.5819 40.3826 24.0273 40.1445 24.5123 40.048C24.9972 39.9516 25.4999 40.0011 25.9567 40.1903C26.4135 40.3795 26.804 40.6999 27.0787 41.1111C27.3534 41.5222 27.5 42.0055 27.5 42.5C27.5 43.163 27.2366 43.7989 26.7678 44.2678C26.2989 44.7366 25.663 45 25 45Z" fill="#FFBC47"/>
</svg>
