<svg width="24" height="18" viewBox="0 0 24 18" fill="none" xmlns="http://www.w3.org/2000/svg">
<path d="M23.1833 1.01668C23.0284 0.860465 22.844 0.736474 22.6409 0.651859C22.4378 0.567245 22.22 0.523682 22 0.523682C21.7799 0.523682 21.5621 0.567245 21.359 0.651859C21.1559 0.736474 20.9716 0.860465 20.8166 1.01668L8.39996 13.45L3.18329 8.21668C3.02242 8.06128 2.83252 7.93909 2.62443 7.85708C2.41634 7.77508 2.19413 7.73486 1.97049 7.73873C1.74686 7.7426 1.52618 7.79048 1.32105 7.87963C1.11592 7.96879 0.930354 8.09748 0.774957 8.25835C0.619559 8.41921 0.497369 8.60912 0.415363 8.81721C0.333356 9.0253 0.293139 9.24751 0.297008 9.47114C0.300877 9.69477 0.348757 9.91546 0.437912 10.1206C0.527068 10.3257 0.655754 10.5113 0.816624 10.6667L7.21662 17.0667C7.37156 17.2229 7.5559 17.3469 7.759 17.4315C7.9621 17.5161 8.17994 17.5597 8.39996 17.5597C8.61998 17.5597 8.83782 17.5161 9.04092 17.4315C9.24402 17.3469 9.42835 17.2229 9.58329 17.0667L23.1833 3.46668C23.3525 3.31061 23.4875 3.12119 23.5798 2.91036C23.6722 2.69952 23.7198 2.47185 23.7198 2.24168C23.7198 2.01151 23.6722 1.78383 23.5798 1.573C23.4875 1.36217 23.3525 1.17275 23.1833 1.01668Z" fill="#FFBC47"/>
</svg>
