<svg width="26" height="20" viewBox="0 0 26 20" fill="none" xmlns="http://www.w3.org/2000/svg">
<path d="M21.75 0H4.25C3.25544 0 2.30161 0.395088 1.59835 1.09835C0.895088 1.80161 0.5 2.75544 0.5 3.75V16.25C0.5 17.2446 0.895088 18.1984 1.59835 18.9017C2.30161 19.6049 3.25544 20 4.25 20H21.75C22.7446 20 23.6984 19.6049 24.4017 18.9017C25.1049 18.1984 25.5 17.2446 25.5 16.25V3.75C25.5 2.75544 25.1049 1.80161 24.4017 1.09835C23.6984 0.395088 22.7446 0 21.75 0ZM21.2375 2.5L13.8875 9.85C13.7713 9.96716 13.633 10.0602 13.4807 10.1236C13.3284 10.1871 13.165 10.2197 13 10.2197C12.835 10.2197 12.6716 10.1871 12.5193 10.1236C12.367 10.0602 12.2287 9.96716 12.1125 9.85L4.7625 2.5H21.2375ZM23 16.25C23 16.5815 22.8683 16.8995 22.6339 17.1339C22.3995 17.3683 22.0815 17.5 21.75 17.5H4.25C3.91848 17.5 3.60054 17.3683 3.36612 17.1339C3.1317 16.8995 3 16.5815 3 16.25V4.2625L10.35 11.6125C11.0531 12.3148 12.0062 12.7092 13 12.7092C13.9938 12.7092 14.9469 12.3148 15.65 11.6125L23 4.2625V16.25Z" fill="#FFBC47"/>
</svg>
