<svg width="26" height="26" viewBox="0 0 26 26" fill="none" xmlns="http://www.w3.org/2000/svg">
<path d="M24.125 0.5H1.875C1.51033 0.5 1.16059 0.644866 0.902728 0.902728C0.644866 1.16059 0.5 1.51033 0.5 1.875V24.125C0.5 24.4897 0.644866 24.8394 0.902728 25.0973C1.16059 25.3551 1.51033 25.5 1.875 25.5H13.85V15.8125H10.6V12.0625H13.85V9.25C13.7827 8.5897 13.8606 7.92266 14.0784 7.29567C14.2962 6.66868 14.6485 6.09693 15.1106 5.62051C15.5727 5.1441 16.1335 4.77455 16.7535 4.5378C17.3736 4.30104 18.038 4.20281 18.7 4.25C19.6729 4.24401 20.6454 4.2941 21.6125 4.4V7.775H19.625C18.05 7.775 17.75 8.525 17.75 9.6125V12.025H21.5L21.0125 15.775H17.75V25.5H24.125C24.3056 25.5 24.4844 25.4644 24.6512 25.3953C24.818 25.3262 24.9696 25.225 25.0973 25.0973C25.225 24.9696 25.3262 24.818 25.3953 24.6512C25.4644 24.4844 25.5 24.3056 25.5 24.125V1.875C25.5 1.69443 25.4644 1.51563 25.3953 1.34881C25.3262 1.18199 25.225 1.03041 25.0973 0.902728C24.9696 0.775048 24.818 0.673766 24.6512 0.604666C24.4844 0.535566 24.3056 0.5 24.125 0.5Z" fill="#FFBC47"/>
</svg>
