<svg width="23" height="25" viewBox="0 0 23 25" fill="none" xmlns="http://www.w3.org/2000/svg">
<path d="M2.86249 9.875C2.65872 10.0797 2.5321 10.3486 2.50415 10.636C2.47621 10.9235 2.54866 11.2117 2.7092 11.4518C2.86975 11.6919 3.10847 11.869 3.3848 11.953C3.66113 12.0369 3.95801 12.0226 4.22499 11.9125C4.37691 11.8446 4.51634 11.7516 4.63749 11.6375C4.74993 11.5223 4.83906 11.3865 4.89999 11.2375C4.97145 11.0852 5.00572 10.9181 4.99999 10.75C4.99861 10.4221 4.86842 10.1078 4.63749 9.875C4.52129 9.75784 4.38304 9.66485 4.23071 9.60139C4.07839 9.53792 3.91501 9.50525 3.74999 9.50525C3.58498 9.50525 3.4216 9.53792 3.26927 9.60139C3.11695 9.66485 2.9787 9.75784 2.86249 9.875ZM3.74999 3.25C4.08151 3.25 4.39946 3.3817 4.63388 3.61612C4.8683 3.85054 4.99999 4.16848 4.99999 4.5C4.99999 4.83152 4.8683 5.14946 4.63388 5.38388C4.39946 5.6183 4.08151 5.75 3.74999 5.75C3.41847 5.75 3.10053 5.8817 2.86611 6.11612C2.63169 6.35054 2.49999 6.66848 2.49999 7C2.49999 7.33152 2.63169 7.64946 2.86611 7.88388C3.10053 8.1183 3.41847 8.25 3.74999 8.25C4.40815 8.24958 5.05461 8.07594 5.62441 7.74654C6.19421 7.41714 6.66728 6.94358 6.99608 6.37344C7.32489 5.8033 7.49785 5.15666 7.49759 4.4985C7.49732 3.84034 7.32384 3.19384 6.99458 2.62396C6.66532 2.05408 6.19187 1.5809 5.62181 1.25195C5.05174 0.923011 4.40515 0.749895 3.74699 0.75C3.08883 0.750105 2.44228 0.923429 1.87233 1.25255C1.30237 1.58168 0.829073 2.05502 0.499992 2.625C0.417344 2.76767 0.363736 2.92528 0.342256 3.08875C0.320777 3.25222 0.331851 3.41833 0.37484 3.5775C0.417829 3.73668 0.491883 3.88578 0.592739 4.01621C0.693594 4.14664 0.819258 4.25584 0.962492 4.3375C1.24951 4.50046 1.58934 4.5433 1.90782 4.45665C2.22631 4.37 2.49759 4.16091 2.66249 3.875C2.77262 3.68424 2.9312 3.52598 3.12217 3.41622C3.31315 3.30647 3.52973 3.24912 3.74999 3.25ZM18.75 4.5H11.25C10.9185 4.5 10.6005 4.6317 10.3661 4.86612C10.1317 5.10054 9.99999 5.41848 9.99999 5.75C9.99999 6.08152 10.1317 6.39946 10.3661 6.63388C10.6005 6.8683 10.9185 7 11.25 7H18.75C19.0815 7 19.3995 7.1317 19.6339 7.36612C19.8683 7.60054 20 7.91848 20 8.25V20.4L18.0375 18.5875C17.807 18.3717 17.5033 18.2511 17.1875 18.25H6.24999C5.91847 18.25 5.60053 18.1183 5.36611 17.8839C5.13169 17.6495 4.99999 17.3315 4.99999 17V15.75C4.99999 15.4185 4.8683 15.1005 4.63388 14.8661C4.39946 14.6317 4.08151 14.5 3.74999 14.5C3.41847 14.5 3.10053 14.6317 2.86611 14.8661C2.63169 15.1005 2.49999 15.4185 2.49999 15.75V17C2.49999 17.9946 2.89508 18.9484 3.59834 19.6516C4.3016 20.3549 5.25543 20.75 6.24999 20.75H16.7L20.45 24.1625C20.6678 24.367 20.9516 24.4867 21.25 24.5C21.4214 24.4981 21.591 24.4642 21.75 24.4C21.9736 24.3024 22.1637 24.1415 22.297 23.9372C22.4303 23.7328 22.5008 23.494 22.5 23.25V8.25C22.5 7.25544 22.1049 6.30161 21.4016 5.59835C20.6984 4.89509 19.7446 4.5 18.75 4.5Z" fill="#FFBC47"/>
</svg>
