<svg width="26" height="26" viewBox="0 0 26 26" fill="none" xmlns="http://www.w3.org/2000/svg">
<path d="M19.675 4.825C19.3783 4.825 19.0883 4.91297 18.8416 5.0778C18.595 5.24262 18.4027 5.47689 18.2892 5.75097C18.1756 6.02506 18.1459 6.32666 18.2038 6.61763C18.2617 6.90861 18.4046 7.17588 18.6143 7.38566C18.8241 7.59544 19.0914 7.7383 19.3824 7.79618C19.6733 7.85405 19.9749 7.82435 20.249 7.71082C20.5231 7.59729 20.7574 7.40503 20.9222 7.15835C21.087 6.91168 21.175 6.62167 21.175 6.325C21.175 5.92717 21.017 5.54564 20.7357 5.26434C20.4544 4.98304 20.0728 4.825 19.675 4.825ZM25.425 7.85C25.4007 6.81287 25.2064 5.78675 24.85 4.8125C24.5322 3.97892 24.0375 3.2241 23.4 2.6C22.781 1.95928 22.0245 1.46772 21.1875 1.1625C20.2158 0.795201 19.1886 0.596512 18.15 0.575C16.825 0.5 16.4 0.5 13 0.5C9.6 0.5 9.175 0.5 7.85 0.575C6.81144 0.596512 5.78418 0.795201 4.8125 1.1625C3.9771 1.47081 3.22117 1.96195 2.6 2.6C1.95928 3.21897 1.46772 3.97555 1.1625 4.8125C0.795201 5.78418 0.596512 6.81144 0.575 7.85C0.5 9.175 0.5 9.6 0.5 13C0.5 16.4 0.5 16.825 0.575 18.15C0.596512 19.1886 0.795201 20.2158 1.1625 21.1875C1.46772 22.0244 1.95928 22.781 2.6 23.4C3.22117 24.038 3.9771 24.5292 4.8125 24.8375C5.78418 25.2048 6.81144 25.4035 7.85 25.425C9.175 25.5 9.6 25.5 13 25.5C16.4 25.5 16.825 25.5 18.15 25.425C19.1886 25.4035 20.2158 25.2048 21.1875 24.8375C22.0245 24.5323 22.781 24.0407 23.4 23.4C24.0403 22.7782 24.5354 22.0227 24.85 21.1875C25.2064 20.2132 25.4007 19.1871 25.425 18.15C25.425 16.825 25.5 16.4 25.5 13C25.5 9.6 25.5 9.175 25.425 7.85ZM23.175 18C23.1659 18.7935 23.0222 19.5796 22.75 20.325C22.5504 20.869 22.2298 21.3605 21.8125 21.7625C21.4071 22.1756 20.9165 22.4955 20.375 22.7C19.6296 22.9722 18.8435 23.1159 18.05 23.125C16.8 23.1875 16.3375 23.2 13.05 23.2C9.7625 23.2 9.3 23.2 8.05 23.125C7.22611 23.1404 6.40574 23.0136 5.625 22.75C5.10723 22.5351 4.63919 22.216 4.25 21.8125C3.83511 21.4109 3.51855 20.919 3.325 20.375C3.01982 19.6189 2.85055 18.8149 2.825 18C2.825 16.75 2.75 16.2875 2.75 13C2.75 9.7125 2.75 9.25 2.825 8C2.8306 7.18882 2.97869 6.38493 3.2625 5.625C3.48256 5.09739 3.82033 4.62707 4.25 4.25C4.62977 3.82021 5.09911 3.47887 5.625 3.25C6.38694 2.97505 7.19 2.83135 8 2.825C9.25 2.825 9.7125 2.75 13 2.75C16.2875 2.75 16.75 2.75 18 2.825C18.7935 2.8341 19.5796 2.97781 20.325 3.25C20.893 3.46082 21.4029 3.80356 21.8125 4.25C22.2221 4.63397 22.5422 5.10342 22.75 5.625C23.0278 6.38617 23.1716 7.18972 23.175 8C23.2375 9.25 23.25 9.7125 23.25 13C23.25 16.2875 23.2375 16.75 23.175 18ZM13 6.5875C11.7323 6.58997 10.4937 6.96816 9.44082 7.67427C8.38793 8.38039 7.56797 9.38274 7.08454 10.5547C6.60111 11.7266 6.4759 13.0156 6.72474 14.2587C6.97358 15.5017 7.5853 16.6432 8.48259 17.5387C9.3799 18.4343 10.5225 19.0438 11.7661 19.2902C13.0096 19.5366 14.2983 19.4089 15.4693 18.9232C16.6403 18.4375 17.6411 17.6155 18.3452 16.5613C19.0492 15.507 19.425 14.2677 19.425 13C19.4267 12.1564 19.2615 11.3208 18.939 10.5412C18.6166 9.76163 18.1432 9.05351 17.5461 8.45756C16.949 7.86161 16.2399 7.3896 15.4597 7.06866C14.6796 6.74772 13.8436 6.5842 13 6.5875ZM13 17.1625C12.1767 17.1625 11.372 16.9184 10.6874 16.461C10.0029 16.0036 9.4694 15.3535 9.15435 14.5929C8.8393 13.8323 8.75687 12.9954 8.91748 12.1879C9.07809 11.3805 9.47453 10.6388 10.0567 10.0567C10.6388 9.47453 11.3805 9.07809 12.1879 8.91748C12.9954 8.75687 13.8323 8.8393 14.5929 9.15435C15.3535 9.4694 16.0036 10.0029 16.461 10.6874C16.9184 11.372 17.1625 12.1767 17.1625 13C17.1625 13.5466 17.0548 14.0879 16.8456 14.5929C16.6365 15.0979 16.3299 15.5568 15.9433 15.9433C15.5568 16.3299 15.0979 16.6365 14.5929 16.8456C14.0879 17.0548 13.5466 17.1625 13 17.1625Z" fill="#FFBC47"/>
</svg>
