<svg width="20" height="26" viewBox="0 0 20 26" fill="none" xmlns="http://www.w3.org/2000/svg">
<path d="M10 0.5C7.34784 0.5 4.8043 1.55357 2.92893 3.42893C1.05357 5.3043 0 7.84784 0 10.5C0 17.25 8.8125 24.875 9.1875 25.2C9.41392 25.3937 9.70206 25.5001 10 25.5001C10.2979 25.5001 10.5861 25.3937 10.8125 25.2C11.25 24.875 20 17.25 20 10.5C20 7.84784 18.9464 5.3043 17.0711 3.42893C15.1957 1.55357 12.6522 0.5 10 0.5ZM10 22.5625C7.3375 20.0625 2.5 14.675 2.5 10.5C2.5 8.51088 3.29018 6.60322 4.6967 5.1967C6.10322 3.79018 8.01088 3 10 3C11.9891 3 13.8968 3.79018 15.3033 5.1967C16.7098 6.60322 17.5 8.51088 17.5 10.5C17.5 14.675 12.6625 20.075 10 22.5625ZM10 5.5C9.01109 5.5 8.0444 5.79324 7.22215 6.34265C6.3999 6.89206 5.75904 7.67295 5.3806 8.58658C5.00216 9.50021 4.90315 10.5055 5.09607 11.4755C5.289 12.4454 5.7652 13.3363 6.46447 14.0355C7.16373 14.7348 8.05464 15.211 9.02455 15.4039C9.99445 15.5969 10.9998 15.4978 11.9134 15.1194C12.827 14.741 13.6079 14.1001 14.1573 13.2779C14.7068 12.4556 15 11.4889 15 10.5C15 9.17392 14.4732 7.90215 13.5355 6.96447C12.5979 6.02678 11.3261 5.5 10 5.5ZM10 13C9.50555 13 9.0222 12.8534 8.61107 12.5787C8.19995 12.304 7.87952 11.9135 7.6903 11.4567C7.50108 10.9999 7.45157 10.4972 7.54804 10.0123C7.6445 9.52732 7.8826 9.08186 8.23223 8.73223C8.58186 8.3826 9.02732 8.1445 9.51227 8.04804C9.99723 7.95157 10.4999 8.00108 10.9567 8.1903C11.4135 8.37952 11.804 8.69995 12.0787 9.11107C12.3534 9.5222 12.5 10.0055 12.5 10.5C12.5 11.163 12.2366 11.7989 11.7678 12.2678C11.2989 12.7366 10.663 13 10 13Z" fill="#FFBC47"/>
</svg>
