<svg width="22" height="22" viewBox="0 0 22 22" fill="none" xmlns="http://www.w3.org/2000/svg">
<path d="M14.1875 11.275C14.8545 10.6977 15.3894 9.98361 15.7561 9.18128C16.1227 8.37895 16.3125 7.50714 16.3125 6.625C16.3125 4.9674 15.654 3.37769 14.4819 2.20558C13.3098 1.03348 11.7201 0.375 10.0625 0.375C8.4049 0.375 6.81518 1.03348 5.64308 2.20558C4.47098 3.37769 3.8125 4.9674 3.8125 6.625C3.82022 7.51198 4.01971 8.38679 4.39729 9.18943C4.77488 9.99206 5.32161 10.7035 6 11.275C4.25017 12.0674 2.76558 13.3469 1.72373 14.9607C0.681869 16.5744 0.12684 18.4541 0.125 20.375C0.125 20.7065 0.256696 21.0245 0.491116 21.2589C0.725537 21.4933 1.04348 21.625 1.375 21.625C1.70652 21.625 2.02446 21.4933 2.25888 21.2589C2.4933 21.0245 2.625 20.7065 2.625 20.375C2.625 18.3859 3.41518 16.4782 4.8217 15.0717C6.22822 13.6652 8.13588 12.875 10.125 12.875C12.1141 12.875 14.0218 13.6652 15.4283 15.0717C16.8348 16.4782 17.625 18.3859 17.625 20.375C17.625 20.7065 17.7567 21.0245 17.9911 21.2589C18.2255 21.4933 18.5435 21.625 18.875 21.625C19.2065 21.625 19.5245 21.4933 19.7589 21.2589C19.9933 21.0245 20.125 20.7065 20.125 20.375C20.1177 18.4473 19.5534 16.5627 18.5 14.9482C17.4466 13.3337 15.949 12.0581 14.1875 11.275ZM10.0625 10.375C9.32082 10.375 8.5958 10.1551 7.97911 9.74301C7.36243 9.33096 6.88178 8.74529 6.59795 8.06006C6.31412 7.37484 6.23986 6.62084 6.38455 5.89341C6.52925 5.16598 6.8864 4.4978 7.41085 3.97335C7.9353 3.4489 8.60348 3.09175 9.33091 2.94706C10.0583 2.80236 10.8123 2.87662 11.4976 3.16045C12.1828 3.44428 12.7685 3.92493 13.1805 4.54161C13.5926 5.1583 13.8125 5.88332 13.8125 6.625C13.8125 7.61956 13.4174 8.57339 12.7142 9.27665C12.0109 9.97991 11.0571 10.375 10.0625 10.375ZM20.6875 4.125C20.356 4.125 20.038 4.2567 19.8036 4.49112C19.5692 4.72554 19.4375 5.04348 19.4375 5.375V7.875C19.4375 8.20652 19.5692 8.52446 19.8036 8.75888C20.038 8.9933 20.356 9.125 20.6875 9.125C21.019 9.125 21.337 8.9933 21.5714 8.75888C21.8058 8.52446 21.9375 8.20652 21.9375 7.875V5.375C21.9375 5.04348 21.8058 4.72554 21.5714 4.49112C21.337 4.2567 21.019 4.125 20.6875 4.125ZM19.75 10.7375C19.5216 10.977 19.3921 11.294 19.3875 11.625C19.3865 11.7895 19.4181 11.9526 19.4803 12.1049C19.5425 12.2572 19.6341 12.3957 19.75 12.5125C19.8715 12.6229 20.011 12.7117 20.1625 12.775C20.3121 12.8411 20.4739 12.8753 20.6375 12.8753C20.8011 12.8753 20.9629 12.8411 21.1125 12.775C21.2676 12.7189 21.4085 12.6293 21.5251 12.5126C21.6418 12.396 21.7314 12.2551 21.7875 12.1C21.8575 11.9517 21.8917 11.789 21.8875 11.625C21.8889 11.3767 21.8164 11.1336 21.6792 10.9267C21.5419 10.7198 21.3462 10.5585 21.1169 10.4633C20.8875 10.3681 20.6351 10.3433 20.3916 10.3922C20.1482 10.441 19.9248 10.5612 19.75 10.7375Z" fill="#FFBC47"/>
</svg>
