<svg width="26" height="26" viewBox="0 0 26 26" fill="none" xmlns="http://www.w3.org/2000/svg">
<path d="M22.3 14.2502C22.025 14.2502 21.7375 14.1627 21.4625 14.1002C20.9056 13.9775 20.3583 13.8146 19.825 13.6127C19.2451 13.4017 18.6077 13.4127 18.0354 13.6435C17.4631 13.8742 16.9964 14.3085 16.725 14.8627L16.45 15.4252C15.2325 14.7479 14.1137 13.9067 13.125 12.9252C12.1435 11.9365 11.3023 10.8177 10.625 9.6002L11.15 9.2502C11.7042 8.97885 12.1385 8.51211 12.3692 7.93982C12.6 7.36752 12.611 6.73009 12.4 6.1502C12.2015 5.61573 12.0387 5.0687 11.9125 4.5127C11.85 4.2377 11.8 3.9502 11.7625 3.6627C11.6107 2.78223 11.1495 1.98488 10.462 1.41425C9.77453 0.843622 8.90587 0.537212 8.0125 0.550201H4.2625C3.72379 0.545143 3.19032 0.656218 2.69839 0.875864C2.20647 1.09551 1.76764 1.41857 1.41179 1.82305C1.05594 2.22754 0.791422 2.70394 0.636239 3.21984C0.481056 3.73574 0.438853 4.27902 0.512504 4.8127C1.17843 10.0494 3.57004 14.915 7.30957 18.641C11.0491 22.3669 15.9234 24.7408 21.1625 25.3877H21.6375C22.5593 25.3891 23.4493 25.0509 24.1375 24.4377C24.533 24.084 24.8489 23.6504 25.0643 23.1656C25.2798 22.6808 25.39 22.1557 25.3875 21.6252V17.8752C25.3722 17.0069 25.056 16.1709 24.4929 15.5098C23.9298 14.8487 23.1548 14.4035 22.3 14.2502ZM22.925 21.7502C22.9248 21.9277 22.8868 22.1031 22.8135 22.2647C22.7402 22.4264 22.6333 22.5706 22.5 22.6877C22.3607 22.809 22.1975 22.8995 22.0208 22.9533C21.8442 23.0072 21.6582 23.0231 21.475 23.0002C16.7936 22.4 12.4453 20.2583 9.1159 16.9131C5.7865 13.5678 3.66552 9.20937 3.0875 4.5252C3.06761 4.3421 3.08504 4.15686 3.13876 3.98069C3.19247 3.80452 3.28134 3.64106 3.4 3.5002C3.51714 3.36687 3.66133 3.26 3.82298 3.18672C3.98462 3.11344 4.16002 3.07543 4.3375 3.0752H8.0875C8.37819 3.06873 8.66203 3.1638 8.89018 3.34404C9.11833 3.52428 9.27652 3.77841 9.3375 4.0627C9.3875 4.40437 9.45 4.74187 9.525 5.0752C9.6694 5.73413 9.86158 6.38168 10.1 7.0127L8.35 7.8252C8.20038 7.89385 8.06578 7.99138 7.95395 8.1122C7.84212 8.23301 7.75525 8.37472 7.69834 8.52919C7.64143 8.68367 7.61559 8.84787 7.62231 9.01235C7.62903 9.17684 7.66818 9.33838 7.7375 9.4877C9.5365 13.3411 12.6341 16.4387 16.4875 18.2377C16.7918 18.3627 17.1332 18.3627 17.4375 18.2377C17.5934 18.1819 17.7367 18.0958 17.859 17.9842C17.9813 17.8726 18.0802 17.7378 18.15 17.5877L18.925 15.8377C19.5712 16.0688 20.2307 16.2608 20.9 16.4127C21.2333 16.4877 21.5708 16.5502 21.9125 16.6002C22.1968 16.6612 22.4509 16.8194 22.6312 17.0475C22.8114 17.2757 22.9065 17.5595 22.9 17.8502L22.925 21.7502Z" fill="#FFBC47"/>
</svg>
