<svg width="28" height="24" viewBox="0 0 28 24" fill="none" xmlns="http://www.w3.org/2000/svg">
<path d="M27.7388 1.93729C27.7387 1.71666 27.6803 1.49997 27.5694 1.30923C27.4585 1.1185 27.2991 0.96051 27.1074 0.85132C26.9157 0.742131 26.6985 0.685629 26.4779 0.687556C26.2572 0.689483 26.041 0.749769 25.8513 0.86229C25.1193 1.2983 24.3312 1.63223 23.5088 1.85479C22.335 0.847633 20.8379 0.296553 19.2913 0.30229C17.5947 0.304324 15.9653 0.96558 14.7471 2.14644C13.5289 3.3273 12.8173 4.93534 12.7625 6.63104C9.41727 6.0977 6.38536 4.3517 4.24502 1.72604C4.11605 1.56975 3.95143 1.44674 3.76501 1.36734C3.57858 1.28794 3.37582 1.25448 3.17377 1.26979C2.97177 1.28651 2.77687 1.35215 2.60591 1.46104C2.43495 1.56993 2.29307 1.7188 2.19252 1.89479C1.67692 2.79466 1.38082 3.80345 1.32826 4.83923C1.2757 5.87502 1.46816 6.9086 1.89002 7.85604L1.88752 7.85729C1.6975 7.97405 1.54068 8.13769 1.43211 8.3325C1.32354 8.52732 1.26686 8.74677 1.26752 8.96979C1.26551 9.15328 1.27679 9.33668 1.30127 9.51854C1.42892 11.0911 2.12581 12.5631 3.26127 13.6585C3.18422 13.8054 3.13724 13.9662 3.12307 14.1315C3.1089 14.2967 3.12784 14.4632 3.17877 14.621C3.67374 16.1637 4.72659 17.4662 6.13127 18.2735C4.70398 18.8253 3.16289 19.0177 1.64377 18.8335C1.36273 18.7986 1.07816 18.8601 0.836653 19.008C0.595148 19.1559 0.411026 19.3815 0.314442 19.6477C0.217859 19.9139 0.21454 20.205 0.305028 20.4734C0.395516 20.7417 0.574448 20.9714 0.812518 21.1248C3.42528 22.8073 6.46737 23.7017 9.57502 23.701C13.0991 23.7407 16.5374 22.6147 19.3553 20.498C22.1732 18.3814 24.2126 15.3929 25.1563 11.9973C25.5975 10.5182 25.8227 8.98323 25.825 7.43979L25.8238 7.18979C26.4765 6.48579 26.9821 5.65858 27.3109 4.75664C27.6397 3.8547 27.7852 2.89618 27.7388 1.93729ZM23.6063 5.95229C23.3996 6.19631 23.2948 6.51056 23.3138 6.82979C23.3263 7.03604 23.325 7.24354 23.325 7.43979C23.3224 8.74377 23.1312 10.0405 22.7575 11.2898C21.9871 14.1793 20.2693 16.7267 17.8791 18.5239C15.489 20.3212 12.5648 21.2643 9.57502 21.2023C8.50143 21.2025 7.43156 21.0762 6.38752 20.826C7.71916 20.3966 8.96422 19.7347 10.065 18.871C10.268 18.7115 10.4166 18.4929 10.4903 18.2455C10.5641 17.998 10.5594 17.7338 10.477 17.4891C10.3945 17.2444 10.2383 17.0313 10.0298 16.879C9.82125 16.7267 9.57069 16.6427 9.31252 16.6385C8.27342 16.6223 7.28122 16.2033 6.54502 15.4698C6.73168 15.4348 6.9171 15.391 7.10127 15.3385C7.3713 15.2618 7.60763 15.0963 7.77219 14.8689C7.93675 14.6415 8.01996 14.3652 8.00841 14.0848C7.99686 13.8043 7.89123 13.5358 7.70853 13.3227C7.52583 13.1095 7.2767 12.9641 7.00127 12.9098C6.39813 12.7907 5.8306 12.534 5.34281 12.1598C4.85501 11.7856 4.46009 11.304 4.18877 10.7523C4.41471 10.7832 4.6421 10.8024 4.87002 10.8098C5.14087 10.8142 5.4061 10.7323 5.62726 10.5759C5.84842 10.4195 6.01401 10.1967 6.10002 9.93979C6.18258 9.68075 6.17843 9.40185 6.08821 9.14537C5.99798 8.8889 5.82659 8.66883 5.60002 8.51854C5.04994 8.15237 4.59928 7.65547 4.28841 7.07235C3.97754 6.48922 3.81618 5.8381 3.81877 5.17729C3.81877 5.09479 3.82127 5.01104 3.82627 4.92979C6.6281 7.54308 10.2624 9.08357 14.0888 9.27979C14.282 9.28712 14.4743 9.25042 14.6512 9.17246C14.8282 9.0945 14.9851 8.97732 15.11 8.82979C15.2338 8.68135 15.3215 8.50623 15.3662 8.31818C15.4108 8.13014 15.4113 7.9343 15.3675 7.74604C15.296 7.44755 15.2595 7.14174 15.2588 6.83479C15.2601 5.76571 15.6854 4.7408 16.4413 3.98484C17.1973 3.22889 18.2222 2.80361 19.2913 2.80229C19.8414 2.80067 20.386 2.91313 20.8905 3.13258C21.395 3.35203 21.8486 3.67371 22.2225 4.07729C22.3667 4.23244 22.5482 4.34812 22.7497 4.41332C22.9512 4.47853 23.166 4.49108 23.3738 4.44979C23.8873 4.34998 24.3934 4.2155 24.8888 4.04729C24.551 4.73832 24.1195 5.37938 23.6063 5.95229Z" fill="#FFBC47"/>
</svg>
