<svg width="28" height="20" viewBox="0 0 28 20" fill="none" xmlns="http://www.w3.org/2000/svg">
<path d="M27.75 7.13736C27.8118 5.34818 27.4206 3.57238 26.6125 1.97486C26.0643 1.31936 25.3034 0.876996 24.4625 0.724858C20.9844 0.409265 17.4919 0.279913 14 0.337358C10.5208 0.277306 7.04092 0.402483 3.57503 0.712358C2.88981 0.837004 2.25568 1.15841 1.75003 1.63736C0.625034 2.67486 0.500034 4.44986 0.375034 5.94986C0.193674 8.64681 0.193674 11.3529 0.375034 14.0499C0.411196 14.8941 0.536901 15.7321 0.750033 16.5499C0.900752 17.1812 1.20569 17.7653 1.63753 18.2499C2.14662 18.7542 2.79551 19.0939 3.50003 19.2249C6.19493 19.5575 8.91031 19.6954 11.625 19.6374C16 19.6999 19.8375 19.6374 24.375 19.2874C25.0968 19.1644 25.764 18.8243 26.2875 18.3124C26.6375 17.9623 26.8989 17.5337 27.05 17.0624C27.4971 15.6906 27.7166 14.255 27.7 12.8124C27.75 12.1124 27.75 7.88736 27.75 7.13736ZM11.175 13.5624V5.82486L18.575 9.71236C16.5 10.8624 13.7625 12.1624 11.175 13.5624Z" fill="#FFBC47"/>
</svg>
