<svg width="31" height="31" viewBox="0 0 31 31" fill="none" xmlns="http://www.w3.org/2000/svg">
<path d="M15.5 0.916668C12.6715 0.922042 9.90563 1.74983 7.53926 3.2992C5.17289 4.84858 3.30815 7.05266 2.17218 9.643C1.0362 12.2333 0.678018 15.0981 1.14126 17.8884C1.6045 20.6787 2.86917 23.274 4.78122 25.3583C6.14684 26.8386 7.80426 28.02 9.64905 28.828C11.4938 29.636 13.486 30.0532 15.5 30.0532C17.514 30.0532 19.5061 29.636 21.3509 28.828C23.1957 28.02 24.8531 26.8386 26.2187 25.3583C28.1308 23.274 29.3954 20.6787 29.8587 17.8884C30.3219 15.0981 29.9637 12.2333 28.8278 9.643C27.6918 7.05266 25.827 4.84858 23.4607 3.2992C21.0943 1.74983 18.3284 0.922042 15.5 0.916668ZM15.5 27.1667C12.479 27.1621 9.57755 25.9858 7.40622 23.8854C8.06545 22.2806 9.18689 20.9079 10.628 19.9419C12.0692 18.9759 13.765 18.4601 15.5 18.4601C17.2349 18.4601 18.9307 18.9759 20.3719 19.9419C21.813 20.9079 22.9345 22.2806 23.5937 23.8854C21.4224 25.9858 18.521 27.1621 15.5 27.1667ZM12.5833 12.5833C12.5833 12.0065 12.7544 11.4426 13.0749 10.9629C13.3953 10.4833 13.8509 10.1094 14.3838 9.88869C14.9168 9.66793 15.5032 9.61017 16.069 9.72271C16.6348 9.83525 17.1545 10.113 17.5624 10.5209C17.9703 10.9288 18.2481 11.4485 18.3606 12.0143C18.4731 12.5801 18.4154 13.1665 18.1946 13.6995C17.9739 14.2324 17.6 14.688 17.1204 15.0085C16.6407 15.3289 16.0768 15.5 15.5 15.5C14.7264 15.5 13.9846 15.1927 13.4376 14.6457C12.8906 14.0987 12.5833 13.3569 12.5833 12.5833ZM25.5771 21.3333C24.2741 19.1047 22.2687 17.3711 19.875 16.4042C20.6175 15.5622 21.1013 14.5239 21.2684 13.4138C21.4354 12.3037 21.2786 11.1689 20.8167 10.1457C20.3548 9.12254 19.6075 8.25436 18.6644 7.64537C17.7213 7.03638 16.6226 6.71245 15.5 6.71245C14.3774 6.71245 13.2786 7.03638 12.3355 7.64537C11.3924 8.25436 10.6451 9.12254 10.1832 10.1457C9.72137 11.1689 9.56453 12.3037 9.73158 13.4138C9.89862 14.5239 10.3824 15.5622 11.125 16.4042C8.73126 17.3711 6.72586 19.1047 5.42289 21.3333C4.38447 19.5645 3.83581 17.5511 3.8333 15.5C3.8333 12.4058 5.06247 9.43835 7.25039 7.25042C9.43832 5.0625 12.4058 3.83333 15.5 3.83333C18.5942 3.83333 21.5616 5.0625 23.7495 7.25042C25.9375 9.43835 27.1666 12.4058 27.1666 15.5C27.1641 17.5511 26.6155 19.5645 25.5771 21.3333Z" fill="white"/>
</svg>
